<?xml version="1.0" encoding="UTF-8" standalone="no"?>
<svg width="256px" height="40px" viewBox="0 0 256 40" version="1.1" xmlns="http://www.w3.org/2000/svg" xmlns:xlink="http://www.w3.org/1999/xlink">
    <!-- Generator: Sketch 41.1 (35376) - http://www.bohemiancoding.com/sketch -->
    <title>logo</title>
    <desc>Created with Sketch.</desc>
    <defs>
        <polygon id="path-1" points="0 31.5314036 74.4492537 31.5314036 74.4492537 -0.000232727273 0 -0.000232727273"></polygon>
    </defs>
    <g id="Page-1" stroke="none" stroke-width="1" fill="none" fill-rule="evenodd">
        <g id="digest3" transform="translate(-424.000000, -20.000000)">
            <g id="header" transform="translate(400.000000, 0.000000)">
                <g id="logo" transform="translate(24.000000, 20.000000)">
                    <g id="Group-6">
                        <rect id="Rectangle-3" fill="#FFFFFF" opacity="0.32316931" x="168" y="0" width="0.5" height="40"></rect>
                        <g id="logo" transform="translate(0.000000, 4.000000)">
                            <g id="Page-1">
                                <path d="M11.9788791,15.05664 L9.88335672,15.05664 L9.69126716,13.9680582 C8.83617761,14.9315491 7.36931194,15.2666764 6.21677463,15.2666764 C2.44483433,15.2666764 5.82089551e-05,12.9620945 5.82089551e-05,10.0722036 C5.82089551e-05,7.18114909 2.44483433,4.87656727 6.21677463,4.87656727 C8.80125224,4.87656727 11.5597746,5.97969455 11.8566403,8.47976727 L8.6085806,8.47976727 C8.50380448,7.62798545 7.45604328,7.11133091 6.14634179,7.11133091 C4.05140149,7.11133091 3.24811791,8.59147636 3.24811791,10.0722036 C3.24811791,11.5523491 4.05140149,13.0319127 6.14634179,13.0319127 C7.75349104,13.0319127 8.83617761,12.4314764 9.01022239,11.52384 L6.74065522,11.52384 L6.74065522,9.59685818 L11.9788791,9.59685818 L11.9788791,15.05664 L11.9788791,15.05664 Z" id="Fill-1" fill="#FFFFFF"></path>
                                <path d="M19.2757791,10.6861964 C19.223391,9.87630545 18.5074209,9.20605091 17.5120478,9.20605091 C16.4642866,9.20605091 15.7657791,9.80590545 15.5911522,10.6861964 L19.2757791,10.6861964 Z M15.5911522,12.01216 C15.6435403,13.00416 16.3595104,13.6598691 17.6168239,13.6598691 C18.332794,13.6598691 19.0313015,13.3951418 19.3107045,12.8645236 L22.0872716,12.8645236 C21.5459284,14.5407418 19.6075701,15.2668509 17.5818985,15.2668509 C14.6307045,15.2668509 12.6224955,13.8419782 12.6224955,11.4123055 C12.6224955,9.19208727 14.8402567,7.60023273 17.5120478,7.60023273 C20.7601075,7.60023273 22.3841373,9.55514182 22.2444358,12.01216 L15.5911522,12.01216 Z" id="Fill-3" fill="#FFFFFF"></path>
                                <path d="M27.4747433,13.4509382 C28.8542955,13.4509382 29.2908627,12.3611927 29.2908627,11.4395927 C29.2908627,10.5185745 28.8542955,9.41544727 27.4747433,9.41544727 C26.095191,9.41544727 25.6760866,10.5185745 25.6760866,11.4395927 C25.6760866,12.3611927 26.095191,13.4509382 27.4747433,13.4509382 M27.4747433,7.60017455 C30.2862358,7.60017455 32.2589373,9.26184727 32.2589373,11.4395927 C32.2589373,13.61792 30.2862358,15.2667927 27.4747433,15.2667927 C24.6632507,15.2667927 22.7074299,13.61792 22.7074299,11.4395927 C22.7074299,9.26184727 24.6632507,7.60017455 27.4747433,7.60017455" id="Fill-5" fill="#FFFFFF"></path>
                                <path d="M32.7519672,7.80951273 L35.6327284,7.80951273 L35.6327284,9.08078545 L35.6682358,9.08078545 C36.104803,8.15860364 37.1170567,7.66987636 38.3918328,7.66987636 C38.6188478,7.66987636 38.8633254,7.68384 39.0903403,7.72573091 L39.0903403,9.89009455 C38.7061612,9.80631273 38.3569075,9.75045818 37.9552657,9.75045818 C36.4884,9.75045818 35.7206239,10.5609309 35.7206239,11.4679855 L35.7206239,15.05664 L32.7519672,15.05664 L32.7519672,7.80951273 Z" id="Fill-7" fill="#FFFFFF"></path>
                                <path d="M43.9645254,9.41573818 C42.6548239,9.41573818 42.2357194,10.3367564 42.2357194,11.2310109 C42.2357194,12.0827927 42.7246746,12.9339927 43.9470627,12.9339927 C45.2043761,12.9339927 45.7457194,12.1520291 45.7457194,11.2449745 C45.7457194,10.3233745 45.2916896,9.41573818 43.9645254,9.41573818 L43.9645254,9.41573818 Z M48.5572119,14.1773382 C48.5572119,15.3636655 48.2772269,17.5984291 44.0343761,17.5984291 C41.920809,17.5984291 39.9306448,17.2214109 39.581391,15.2804655 L42.5494657,15.2804655 C42.6198985,15.6010473 42.7770627,15.7977018 43.0564657,15.9088291 C43.318406,16.0205382 43.6857045,16.0624291 44.1391522,16.0624291 C45.5530478,16.0624291 45.6933313,15.2670836 45.6933313,14.3728291 L45.6933313,13.6886109 L45.6578239,13.6886109 C45.1164806,14.3588655 44.209003,14.7498473 43.2491373,14.7498473 C40.5069134,14.7498473 39.2676448,13.1853382 39.2676448,11.1472291 C39.2676448,9.22024727 40.6815403,7.59988364 43.2491373,7.59988364 C44.3312418,7.59988364 45.1519881,7.97690182 45.6752866,8.71697455 L45.7102119,8.71697455 L45.7102119,7.80933818 L48.5572119,7.80933818 L48.5572119,14.1773382 Z" id="Fill-9" fill="#FFFFFF"></path>
                                <mask id="mask-2" fill="white">
                                    <use xlink:href="#path-1"></use>
                                </mask>
                                <g id="Clip-12"></g>
                                <path d="M49.6889104,6.90187636 L52.6575672,6.90187636 L52.6575672,5.08602182 L49.6889104,5.08602182 L49.6889104,6.90187636 Z M49.6894925,15.05664 L52.6581493,15.05664 L52.6581493,7.80951273 L49.6894925,7.80951273 L49.6894925,15.05664 Z" id="Fill-11" fill="#FFFFFF" mask="url(#mask-2)"></path>
                                <path d="M57.3724925,13.7998545 C58.7869701,13.7998545 59.2584627,13.1575273 59.1886119,11.6634182 C58.7695075,11.8722909 58.0011493,11.9147636 57.3556119,12.0544 C56.6914478,12.1806545 56.1326418,12.4034909 56.1326418,12.976 C56.1326418,13.5624727 56.7083284,13.7998545 57.3724925,13.7998545 L57.3724925,13.7998545 Z M53.5307015,10.0436364 C53.5830896,9.09410909 54.1418955,8.47970909 54.9451791,8.10269091 C55.7484627,7.73963636 56.7962239,7.6 57.8259403,7.6 C59.9744328,7.6 62.0519104,7.97701818 62.0519104,10.0296727 L62.0519104,13.2 C62.0519104,13.8132364 62.0519104,14.4840727 62.4017463,15.0565818 L59.4156269,15.0565818 C59.3108507,14.8325818 59.2759254,14.6103273 59.241,14.3723636 C58.4732239,15.0146909 57.3369851,15.2666182 56.2548806,15.2666182 C54.5260746,15.2666182 53.1639851,14.5678545 53.1639851,13.0737455 C53.1639851,10.7138909 56.3771194,10.896 58.4377164,10.5608727 C58.9435522,10.4765091 59.2235373,10.3368727 59.2235373,9.89003636 C59.2235373,9.34545455 58.402791,9.136 57.7921791,9.136 C56.9714328,9.136 56.4469701,9.42923636 56.3072687,10.0436364 L53.5307015,10.0436364 Z" id="Fill-13" fill="#FFFFFF" mask="url(#mask-2)"></path>
                                <polygon id="Fill-14" fill="#FFFFFF" mask="url(#mask-2)" points="35.4372627 19.10208 31.7171284 19.10208 31.7171284 26.8385164 28.4696507 26.8385164 28.4696507 19.10208 24.7506806 19.10208 24.7506806 16.8678982 35.4372627 16.8678982"></polygon>
                                <path d="M39.4698627,22.4680145 C39.4174746,21.6575418 38.7020866,20.9872873 37.7067134,20.9872873 C36.6589522,20.9872873 35.9604448,21.5871418 35.7858179,22.4680145 L39.4698627,22.4680145 Z M35.7858179,23.7939782 C35.838206,24.7859782 36.553594,25.4416873 37.8109075,25.4416873 C38.5274597,25.4416873 39.2253851,25.17696 39.5053701,24.6463418 L42.2813552,24.6463418 C41.7400119,26.32256 39.8016537,27.0486691 37.7765642,27.0486691 C34.8253701,27.0486691 32.8171612,25.6237964 32.8171612,23.1941236 C32.8171612,20.9739055 35.0349224,19.3814691 37.7067134,19.3814691 C40.9547731,19.3814691 42.5782209,21.3363782 42.4391015,23.7939782 L35.7858179,23.7939782 Z" id="Fill-15" fill="#FFFFFF" mask="url(#mask-2)"></path>
                                <path d="M49.4358761,22.2441309 C49.4184134,21.6291491 48.7373687,21.1962764 47.9864731,21.1962764 C46.3275179,21.1962764 46.0655776,22.3284945 46.0655776,23.3338764 C46.0655776,24.2688582 46.5719955,25.2329309 47.829309,25.2329309 C48.8596075,25.2329309 49.3834881,24.7575855 49.5231896,23.9895855 L52.4045328,23.9895855 C52.1420104,25.9305309 50.2566224,27.0487855 47.8467716,27.0487855 C45.1225925,27.0487855 43.0969209,25.5540945 43.0969209,23.3338764 C43.0969209,21.0292945 44.930503,19.3815855 47.8467716,19.3815855 C50.0994582,19.3815855 52.1076672,20.3316945 52.3166373,22.2441309 L49.4358761,22.2441309 Z" id="Fill-16" fill="#FFFFFF" mask="url(#mask-2)"></path>
                                <path d="M53.0119433,16.8680145 L55.9806,16.8680145 L55.9806,20.5829236 L56.0149433,20.5829236 C56.4689731,19.8416873 57.6919433,19.3814691 58.7740478,19.3814691 C61.7950925,19.3814691 62.0395701,21.1408873 62.0395701,22.1887418 L62.0395701,26.8386327 L59.0709134,26.8386327 L59.0709134,23.33376 C59.0709134,22.34176 59.2106149,21.3363782 57.5865851,21.3363782 C56.4689731,21.3363782 55.9806,22.0909964 55.9806,22.8863418 L55.9806,26.8386327 L53.0119433,26.8386327 L53.0119433,16.8680145 Z" id="Fill-17" fill="#FFFFFF" mask="url(#mask-2)"></path>
                                <path d="M73.6454463,30.7265164 C73.7694313,30.7265164 73.942894,30.7067345 73.942894,30.52288 C73.942894,30.3541527 73.8142522,30.3186618 73.6774612,30.3186618 L73.4236701,30.3186618 L73.4236701,30.7265164 L73.6454463,30.7265164 Z M73.3805955,30.2756073 L73.6815358,30.2756073 C73.8893418,30.2756073 73.9853866,30.3675345 73.9853866,30.52288 C73.9853866,30.6793891 73.8742075,30.7515345 73.7461478,30.7625891 L74.0284612,31.1942982 L73.9743269,31.1942982 L73.6989985,30.7666618 C73.6774612,30.7689891 73.6570881,30.7689891 73.6332224,30.7689891 L73.4236701,30.7689891 L73.4236701,31.1942982 L73.3805955,31.1942982 L73.3805955,30.2756073 Z M73.650103,31.4753164 C74.0686254,31.4753164 74.4062373,31.1384436 74.4062373,30.7201164 C74.4062373,30.3012073 74.0686254,29.9643345 73.650103,29.9643345 C73.2309985,29.9643345 72.8939687,30.3012073 72.8939687,30.7201164 C72.8939687,31.1384436 73.2309985,31.4753164 73.650103,31.4753164 L73.650103,31.4753164 Z M73.650103,29.9206982 C74.092491,29.9206982 74.4493119,30.2779345 74.4493119,30.7201164 C74.4493119,31.1617164 74.092491,31.5183709 73.650103,31.5183709 C73.2077149,31.5183709 72.850894,31.1617164 72.850894,30.7201164 C72.850894,30.2779345 73.2077149,29.9206982 73.650103,29.9206982 L73.650103,29.9206982 Z" id="Fill-18" fill="#FFFFFF" mask="url(#mask-2)"></path>
                                <polygon id="Stroke-19" stroke="#C59353" stroke-width="0.5" mask="url(#mask-2)" points="66.020306 17.4225455 69.0931567 28.9454545 66.020306 28.9454545"></polygon>
                                <polygon id="Stroke-20" stroke="#C59353" stroke-width="0.5" mask="url(#mask-2)" points="72.1674627 17.4225455 69.0934478 28.9454545 72.1674627 28.9454545"></polygon>
                                <polyline id="Stroke-21" stroke="#C59353" stroke-width="0.5" mask="url(#mask-2)" points="70.630397 23.0646109 69.0930985 0.0153018182 67.5563821 23.0646109"></polyline>
                                <polygon id="Stroke-22" stroke="#C59353" stroke-width="0.5" mask="url(#mask-2)" points="66.0200149 31.2986764 72.1674627 31.2986764 72.1674627 30.1245673 66.0200149 30.1245673"></polygon>
                            </g>
                            <path d="M76.2537313,4.65454545 L76.2537313,14.1139085 L78.5384328,14.1139085 L78.5384328,4.65454545 L76.2537313,4.65454545 Z M80.3283582,7.26448176 L80.3283582,14.1139085 L82.3947761,14.1139085 L82.3947761,10.52359 C82.3947761,9.82583708 82.5208943,9.32461067 82.7731343,9.01989577 C83.0253744,8.71518087 83.432833,8.56282571 83.9955224,8.56282571 C84.490301,8.56282571 84.8347005,8.7019326 85.0287313,8.98015055 C85.2227622,9.2583685 85.3197761,9.68010526 85.3197761,10.2453735 L85.3197761,14.1139085 L87.386194,14.1139085 L87.386194,9.90091488 C87.386194,9.47696372 87.3449631,9.09055569 87.2625,8.74167921 C87.1800369,8.39280273 87.0369413,8.09692459 86.833209,7.8540359 C86.6294766,7.61114721 86.3505615,7.42125527 85.9964552,7.28435437 C85.642349,7.14745347 85.1888087,7.07900405 84.6358209,7.07900405 C84.1992515,7.07900405 83.7723901,7.16953393 83.3552239,7.35059641 C82.9380576,7.53165889 82.5985088,7.82091289 82.3365672,8.21836711 L82.2929104,8.21836711 L82.2929104,7.26448176 L80.3283582,7.26448176 Z M90.5585821,11.888176 L88.5940299,11.888176 C88.6134329,12.3474565 88.7274243,12.7294484 88.9360075,13.0341633 C89.1445906,13.3388782 89.411379,13.5839713 89.7363806,13.7694499 C90.0613822,13.9549285 90.4324606,14.0874113 90.8496269,14.1669021 C91.2667931,14.246393 91.6936545,14.2861378 92.1302239,14.2861378 C92.5570917,14.2861378 92.976677,14.248601 93.3889925,14.1735263 C93.801308,14.0984517 94.1675357,13.968177 94.4876866,13.7826983 C94.8078374,13.5972197 95.0673498,13.3521266 95.2662313,13.0474117 C95.4651129,12.7426968 95.5645522,12.365121 95.5645522,11.9146728 C95.5645522,11.5967095 95.4966425,11.3295359 95.3608209,11.1131442 C95.2249993,10.8967524 95.0455235,10.7156927 94.8223881,10.5699595 C94.5992526,10.4242263 94.344591,10.3071998 94.0583955,10.2188767 C93.7722001,10.1305535 93.4787328,10.0554799 93.1779851,9.99365373 C92.8869388,9.93182752 92.6007477,9.87441833 92.319403,9.82142444 C92.0380583,9.76843054 91.7882474,9.7088133 91.5699627,9.64257093 C91.351678,9.57632856 91.1746275,9.49021477 91.038806,9.38422698 C90.9029844,9.27823919 90.8350746,9.14134035 90.8350746,8.97352635 C90.8350746,8.83220929 90.8738802,8.71959895 90.9514925,8.63569195 C91.0291049,8.55178495 91.1236935,8.48775162 91.2352612,8.44359004 C91.3468289,8.39942846 91.4705217,8.37072386 91.6063433,8.35747539 C91.7421649,8.34422692 91.868283,8.33760278 91.9847015,8.33760278 C92.3533601,8.33760278 92.6735061,8.40163611 92.9451493,8.52970469 C93.2167924,8.65777327 93.367164,8.90286636 93.3962687,9.26499131 L95.3608209,9.26499131 C95.3220147,8.84104015 95.2031726,8.48996086 95.004291,8.21174291 C94.8054095,7.93352496 94.5555985,7.71051232 94.2548507,7.54269832 C93.954103,7.37488432 93.6121288,7.25564984 93.2289179,7.18499131 C92.845707,7.11433279 92.4503752,7.07900405 92.0429104,7.07900405 C91.6354457,7.07900405 91.2376885,7.11212474 90.8496269,7.17836711 C90.4615652,7.24460948 90.112315,7.35942786 89.8018657,7.52282571 C89.4914164,7.68622355 89.2416054,7.90923619 89.0524254,8.1918703 C88.8632453,8.4745044 88.7686567,8.83662393 88.7686567,9.27823972 C88.7686567,9.57853846 88.8365665,9.83246374 88.9723881,10.0400232 C89.1082096,10.2475826 89.2876855,10.4198102 89.5108209,10.5567111 C89.7339563,10.693612 89.988618,10.8040142 90.2748134,10.8879213 C90.5610089,10.9718283 90.8544761,11.0446938 91.1552239,11.10652 C91.892541,11.247837 92.4673487,11.389152 92.8796642,11.530469 C93.2919797,11.6717861 93.4981343,11.8837585 93.4981343,12.1663926 C93.4981343,12.3342066 93.454478,12.4733135 93.3671642,12.5837174 C93.2798503,12.6941214 93.1707096,12.7824432 93.0397388,12.8486856 C92.908768,12.914928 92.7632471,12.963505 92.6031716,12.9944181 C92.4430962,13.0253312 92.2902992,13.0407875 92.1447761,13.0407875 C91.9410438,13.0407875 91.7445905,13.018707 91.5554104,12.9745455 C91.3662304,12.9303839 91.1988813,12.8619345 91.0533582,12.7691951 C90.9078351,12.6764558 90.788993,12.5572213 90.6968284,12.4114881 C90.6046637,12.2657549 90.5585821,12.0913193 90.5585821,11.888176 L90.5585821,11.888176 Z M99.391791,7.26448176 L99.391791,5.21097858 L97.3253731,5.21097858 L97.3253731,7.26448176 L96.0738806,7.26448176 L96.0738806,8.52308049 L97.3253731,8.52308049 L97.3253731,12.5638448 C97.3253731,12.9083051 97.3884322,13.1865189 97.5145522,13.3984945 C97.6406723,13.6104701 97.812872,13.7738655 98.0311567,13.8886856 C98.2494414,14.0035057 98.5016777,14.0807873 98.7878731,14.1205327 C99.0740686,14.1602781 99.3772372,14.1801506 99.6973881,14.1801506 C99.9011204,14.1801506 100.1097,14.1757345 100.323134,14.1669021 C100.536568,14.1580698 100.730596,14.1404055 100.905224,14.1139085 L100.905224,12.6565837 C100.808208,12.6742483 100.706344,12.6874966 100.599627,12.6963289 C100.49291,12.7051612 100.381344,12.7095773 100.264925,12.7095773 C99.9156699,12.7095773 99.6828364,12.6565842 99.5664179,12.5505964 C99.4499994,12.4446086 99.391791,12.2326362 99.391791,11.9146728 L99.391791,8.52308049 L100.905224,8.52308049 L100.905224,7.26448176 L99.391791,7.26448176 Z M104.019403,6.20460915 L104.019403,4.65454545 L101.952985,4.65454545 L101.952985,6.20460915 L104.019403,6.20460915 Z M101.952985,7.26448176 L101.952985,14.1139085 L104.019403,14.1139085 L104.019403,7.26448176 L101.952985,7.26448176 Z M108.268657,7.26448176 L108.268657,5.21097858 L106.202239,5.21097858 L106.202239,7.26448176 L104.950746,7.26448176 L104.950746,8.52308049 L106.202239,8.52308049 L106.202239,12.5638448 C106.202239,12.9083051 106.265298,13.1865189 106.391418,13.3984945 C106.517538,13.6104701 106.689738,13.7738655 106.908022,13.8886856 C107.126307,14.0035057 107.378543,14.0807873 107.664739,14.1205327 C107.950934,14.1602781 108.254103,14.1801506 108.574254,14.1801506 C108.777986,14.1801506 108.986566,14.1757345 109.2,14.1669021 C109.413434,14.1580698 109.607462,14.1404055 109.78209,14.1139085 L109.78209,12.6565837 C109.685074,12.6742483 109.583209,12.6874966 109.476493,12.6963289 C109.369776,12.7051612 109.25821,12.7095773 109.141791,12.7095773 C108.792536,12.7095773 108.559702,12.6565842 108.443284,12.5505964 C108.326865,12.4446086 108.268657,12.2326362 108.268657,11.9146728 L108.268657,8.52308049 L109.78209,8.52308049 L109.78209,7.26448176 L108.268657,7.26448176 Z M117.829478,14.1139085 L117.829478,7.26448176 L115.76306,7.26448176 L115.76306,10.8548002 C115.76306,11.5525532 115.636942,12.0537796 115.384701,12.3584945 C115.132461,12.6632094 114.725003,12.8155646 114.162313,12.8155646 C113.667535,12.8155646 113.323135,12.6764577 113.129104,12.3982397 C112.935074,12.1200218 112.83806,11.698285 112.83806,11.1330168 L112.83806,7.26448176 L110.771642,7.26448176 L110.771642,11.4774754 C110.771642,11.9014266 110.812873,12.2878346 110.895336,12.6367111 C110.977799,12.9855875 111.120895,13.2814657 111.324627,13.5243544 C111.528359,13.7672431 111.807274,13.954927 112.161381,14.0874117 C112.515487,14.2198964 112.969027,14.2861378 113.522015,14.2861378 C113.958584,14.2861378 114.385446,14.197816 114.802612,14.0211697 C115.219778,13.8445233 115.559327,13.5574774 115.821269,13.1600232 L115.864925,13.1600232 L115.864925,14.1139085 L117.829478,14.1139085 Z M122.020522,7.26448176 L122.020522,5.21097858 L119.954104,5.21097858 L119.954104,7.26448176 L118.702612,7.26448176 L118.702612,8.52308049 L119.954104,8.52308049 L119.954104,12.5638448 C119.954104,12.9083051 120.017164,13.1865189 120.143284,13.3984945 C120.269404,13.6104701 120.441603,13.7738655 120.659888,13.8886856 C120.878173,14.0035057 121.130409,14.0807873 121.416604,14.1205327 C121.7028,14.1602781 122.005969,14.1801506 122.326119,14.1801506 C122.529852,14.1801506 122.738432,14.1757345 122.951866,14.1669021 C123.1653,14.1580698 123.359327,14.1404055 123.533955,14.1139085 L123.533955,12.6565837 C123.43694,12.6742483 123.335075,12.6874966 123.228358,12.6963289 C123.121641,12.7051612 123.010075,12.7095773 122.893657,12.7095773 C122.544401,12.7095773 122.311568,12.6565842 122.195149,12.5505964 C122.078731,12.4446086 122.020522,12.2326362 122.020522,11.9146728 L122.020522,8.52308049 L123.533955,8.52308049 L123.533955,7.26448176 L122.020522,7.26448176 Z M129.587687,9.95390851 L126.226119,9.95390851 C126.235821,9.82142377 126.26735,9.67127665 126.320709,9.50346265 C126.374067,9.33564865 126.466231,9.17666935 126.597201,9.02651998 C126.728172,8.87637061 126.902797,8.75051199 127.121082,8.64894036 C127.339367,8.54736873 127.613431,8.49658367 127.943284,8.49658367 C128.447764,8.49658367 128.823693,8.62023424 129.071082,8.86753909 C129.318471,9.11484393 129.490671,9.47696345 129.587687,9.95390851 L129.587687,9.95390851 Z M126.226119,11.1462652 L131.654104,11.1462652 C131.692911,10.6163262 131.644404,10.1084757 131.508582,9.62269832 C131.372761,9.13692094 131.152054,8.70414396 130.846455,8.32435437 C130.540857,7.94456479 130.150376,7.6420625 129.675,7.41683845 C129.199624,7.19161439 128.641794,7.07900405 128.001493,7.07900405 C127.429102,7.07900405 126.907652,7.17174198 126.437127,7.35722061 C125.966602,7.54269925 125.561569,7.79662452 125.222015,8.11900405 C124.882461,8.44138358 124.620523,8.82337552 124.436194,9.26499131 C124.251865,9.70660711 124.159701,10.183545 124.159701,10.6958193 C124.159701,11.2257583 124.249439,11.7115284 124.428918,12.1531442 C124.608396,12.59476 124.863058,12.9745439 125.19291,13.2925072 C125.522763,13.6104706 125.925371,13.8555637 126.400746,14.0277939 C126.876122,14.200024 127.409699,14.2861378 128.001493,14.2861378 C128.855228,14.2861378 129.582833,14.1094941 130.184328,13.7562015 C130.785824,13.4029089 131.232088,12.8155687 131.523134,11.9941633 L129.704104,11.9941633 C129.636194,12.2061389 129.451867,12.407071 129.151119,12.5969658 C128.850372,12.7868606 128.49142,12.8818066 128.074254,12.8818066 C127.492161,12.8818066 127.045897,12.7449078 126.735448,12.471106 C126.424998,12.1973042 126.255224,11.755695 126.226119,11.1462652 L126.226119,11.1462652 Z M137.373134,8.52308049 L137.373134,14.1139085 L139.439552,14.1139085 L139.439552,8.52308049 L140.865672,8.52308049 L140.865672,7.26448176 L139.439552,7.26448176 L139.439552,6.85378112 C139.439552,6.57114701 139.500186,6.37021484 139.621455,6.25097858 C139.742724,6.13174231 139.944028,6.07212507 140.225373,6.07212507 C140.487315,6.07212507 140.739551,6.08537335 140.98209,6.1118703 L140.98209,4.70753909 C140.807462,4.69870677 140.627986,4.68766654 140.443657,4.67441807 C140.259327,4.66116959 140.075001,4.65454545 139.890672,4.65454545 C139.046638,4.65454545 138.416047,4.84885349 137.998881,5.23747539 C137.581714,5.62609729 137.373134,6.12511566 137.373134,6.73454545 L137.373134,7.26448176 L136.136194,7.26448176 L136.136194,8.52308049 L137.373134,8.52308049 Z M143.601493,10.6958193 C143.601493,10.4220175 143.630597,10.152636 143.688806,9.88766647 C143.747015,9.622697 143.846455,9.38864413 143.987127,9.18550087 C144.127799,8.9823576 144.314551,8.81675416 144.547388,8.68868558 C144.780225,8.560617 145.071267,8.49658367 145.420522,8.49658367 C145.769778,8.49658367 146.063245,8.560617 146.300933,8.68868558 C146.538621,8.81675416 146.727798,8.9823576 146.86847,9.18550087 C147.009142,9.38864413 147.108582,9.622697 147.166791,9.88766647 C147.225,10.152636 147.254104,10.4220175 147.254104,10.6958193 C147.254104,10.9696211 147.225,11.2367947 147.166791,11.497348 C147.108582,11.7579013 147.009142,11.9919542 146.86847,12.1995136 C146.727798,12.407073 146.538621,12.5726765 146.300933,12.6963289 C146.063245,12.8199813 145.769778,12.8818066 145.420522,12.8818066 C145.071267,12.8818066 144.780225,12.8199813 144.547388,12.6963289 C144.314551,12.5726765 144.127799,12.407073 143.987127,12.1995136 C143.846455,11.9919542 143.747015,11.7579013 143.688806,11.497348 C143.630597,11.2367947 143.601493,10.9696211 143.601493,10.6958193 L143.601493,10.6958193 Z M141.535075,10.6958193 C141.535075,11.2434229 141.627238,11.7380252 141.811567,12.179641 C141.995896,12.6212568 142.257834,12.9988326 142.597388,13.3123798 C142.936942,13.6259271 143.344401,13.8666041 143.819776,14.0344181 C144.295152,14.2022321 144.828728,14.2861378 145.420522,14.2861378 C146.012316,14.2861378 146.548318,14.2022321 147.028545,14.0344181 C147.508771,13.8666041 147.918655,13.6259271 148.258209,13.3123798 C148.597763,12.9988326 148.859701,12.6212568 149.04403,12.179641 C149.228359,11.7380252 149.320522,11.2434229 149.320522,10.6958193 C149.320522,10.1482158 149.228359,9.65140543 149.04403,9.20537348 C148.859701,8.75934153 148.597763,8.37955764 148.258209,8.06601042 C147.918655,7.75246321 147.508771,7.50957816 147.028545,7.337348 C146.548318,7.16511784 146.012316,7.07900405 145.420522,7.07900405 C144.828728,7.07900405 144.295152,7.16511784 143.819776,7.337348 C143.344401,7.50957816 142.936942,7.75246321 142.597388,8.06601042 C142.257834,8.37955764 141.995896,8.75934153 141.811567,9.20537348 C141.627238,9.65140543 141.535075,10.1482158 141.535075,10.6958193 L141.535075,10.6958193 Z M150.659328,7.26448176 L150.659328,14.1139085 L152.725746,14.1139085 L152.725746,11.0270295 C152.725746,10.7178985 152.759701,10.4308525 152.827612,10.165883 C152.895523,9.90091356 153.009514,9.66906874 153.16959,9.47034163 C153.329665,9.27161452 153.54067,9.11484327 153.802612,9.00002316 C154.064554,8.88520305 154.3847,8.82779386 154.76306,8.82779386 C154.88918,8.82779386 155.020149,8.834418 155.15597,8.84766647 C155.291792,8.86091495 155.408208,8.87637127 155.505224,8.8940359 L155.505224,7.14524609 C155.340298,7.10108451 155.189926,7.07900405 155.054104,7.07900405 C154.792163,7.07900405 154.539927,7.11433279 154.297388,7.18499131 C154.05485,7.25564984 153.826867,7.35501191 153.613433,7.48308049 C153.399999,7.61114907 153.210822,7.76571228 153.045896,7.94677475 C152.880969,8.12783723 152.75,8.32435331 152.652985,8.53632889 L152.623881,8.53632889 L152.623881,7.26448176 L150.659328,7.26448176 Z M76.2537313,17.9029531 L76.2537313,27.3623162 L78.3929104,27.3623162 L78.3929104,20.7248639 L78.4220149,20.7248639 L80.9686567,27.3623162 L82.7294776,27.3623162 L85.2761194,20.6586219 L85.3052239,20.6586219 L85.3052239,27.3623162 L87.444403,27.3623162 L87.444403,17.9029531 L84.2283582,17.9029531 L81.9291045,24.4079213 L81.9,24.4079213 L79.4697761,17.9029531 L76.2537313,17.9029531 Z M89.1470149,22.6193862 C89.1761195,22.1777704 89.297387,21.8112348 89.5108209,21.5197684 C89.7242548,21.228302 89.9958939,20.9942491 90.3257463,20.8176028 C90.6555987,20.6409565 91.026677,20.5150978 91.4389925,20.4400232 C91.851308,20.3649485 92.2660427,20.3274117 92.683209,20.3274117 C93.0615691,20.3274117 93.4447742,20.3517002 93.8328358,20.4002779 C94.2208975,20.4488557 94.5749984,20.5438016 94.8951493,20.6851187 C95.2153001,20.8264358 95.4772378,21.0229518 95.6809701,21.2746728 C95.8847025,21.5263938 95.9865672,21.8598088 95.9865672,22.2749276 L95.9865672,25.8387493 C95.9865672,26.1478803 96.00597,26.4437585 96.0447761,26.7263926 C96.0835823,27.0090267 96.1514921,27.2209991 96.2485075,27.3623162 L94.1529851,27.3623162 C94.1141789,27.2563284 94.0826494,27.1481341 94.0583955,27.0377302 C94.0341417,26.9273262 94.0171642,26.8147159 94.0074627,26.6998958 C93.6776103,27.0090268 93.2895545,27.2254153 92.8432836,27.3490677 C92.3970127,27.4727202 91.9410471,27.5345455 91.4753731,27.5345455 C91.1164161,27.5345455 90.781718,27.4948006 90.4712687,27.4153098 C90.1608193,27.3358189 89.8891803,27.2121684 89.6563433,27.0443544 C89.4235063,26.8765404 89.2416051,26.664568 89.1106343,26.4084308 C88.9796635,26.1522936 88.9141791,25.8475833 88.9141791,25.4942907 C88.9141791,25.1056688 88.9893649,24.7855021 89.1397388,24.5337811 C89.2901127,24.2820601 89.4841406,24.0811279 89.7218284,23.9309786 C89.9595161,23.7808292 90.2311552,23.6682189 90.5367537,23.5931442 C90.8423523,23.5180695 91.1503716,23.4584523 91.4608209,23.4142907 C91.7712702,23.3701291 92.0768642,23.3348004 92.3776119,23.3083034 C92.6783597,23.2818065 92.9451481,23.2420616 93.1779851,23.1890677 C93.4108221,23.1360739 93.5951486,23.0587922 93.7309701,22.9572206 C93.8667917,22.855649 93.9298508,22.7077099 93.9201493,22.513399 C93.9201493,22.3102557 93.883769,22.1490683 93.8110075,22.0298321 C93.7382459,21.9105958 93.6412319,21.8178579 93.5199627,21.7516155 C93.3986934,21.6853731 93.2580232,21.6412122 93.0979478,21.6191314 C92.9378723,21.5970507 92.7656726,21.5860104 92.5813433,21.5860104 C92.1738786,21.5860104 91.8537325,21.6655001 91.6208955,21.8244818 C91.3880585,21.9834634 91.252239,22.248429 91.2134328,22.6193862 L89.1470149,22.6193862 Z M93.9201493,24.010469 C93.8328354,24.0811275 93.7236947,24.1363287 93.5927239,24.1760741 C93.4617531,24.2158195 93.3210828,24.2489402 93.170709,24.2754372 C93.0203351,24.3019341 92.8626874,24.3240146 92.6977612,24.3416792 C92.532835,24.3593438 92.3679113,24.3814243 92.2029851,24.4079213 C92.0477604,24.4344182 91.8949634,24.4697469 91.7445896,24.5139085 C91.5942157,24.5580701 91.4632468,24.6176873 91.3516791,24.692762 C91.2401114,24.7678367 91.1503735,24.8627827 91.0824627,24.9776028 C91.0145519,25.0924229 90.980597,25.2381539 90.980597,25.4148002 C90.980597,25.5826142 91.0145519,25.7239292 91.0824627,25.8387493 C91.1503735,25.9535694 91.2425367,26.0440993 91.3589552,26.1103416 C91.4753737,26.176584 91.6111933,26.222953 91.7664179,26.2494499 C91.9216426,26.2759469 92.0817156,26.2891951 92.2466418,26.2891951 C92.6541065,26.2891951 92.9694019,26.2273699 93.1925373,26.1037174 C93.4156728,25.980065 93.5805965,25.8321259 93.6873134,25.6598958 C93.7940304,25.4876656 93.8595148,25.31323 93.8837687,25.1365837 C93.9080225,24.9599374 93.9201493,24.8186224 93.9201493,24.7126346 L93.9201493,24.010469 Z M100.206716,20.5128894 L100.206716,18.4593862 L98.1402985,18.4593862 L98.1402985,20.5128894 L96.888806,20.5128894 L96.888806,21.7714881 L98.1402985,21.7714881 L98.1402985,25.8122525 C98.1402985,26.1567128 98.2033576,26.4349266 98.3294776,26.6469021 C98.4555976,26.8588777 98.6277974,27.0222731 98.8460821,27.1370932 C99.0643668,27.2519133 99.316603,27.3291949 99.6027985,27.3689404 C99.888994,27.4086858 100.192163,27.4285582 100.512313,27.4285582 C100.716046,27.4285582 100.924626,27.4241421 101.13806,27.4153098 C101.351494,27.4064775 101.545522,27.3888131 101.720149,27.3623162 L101.720149,25.9049913 C101.623134,25.9226559 101.521269,25.9359042 101.414552,25.9447365 C101.307835,25.9535689 101.196269,25.9579849 101.079851,25.9579849 C100.730595,25.9579849 100.497762,25.9049918 100.381343,25.7990041 C100.264925,25.6930163 100.206716,25.4810439 100.206716,25.1630805 L100.206716,21.7714881 L101.720149,21.7714881 L101.720149,20.5128894 L100.206716,20.5128894 Z M107.773881,23.2023162 L104.412313,23.2023162 C104.422015,23.0698314 104.453545,22.9196843 104.506903,22.7518703 C104.560261,22.5840563 104.652425,22.425077 104.783396,22.2749276 C104.914366,22.1247782 105.088991,21.9989196 105.307276,21.897348 C105.525561,21.7957764 105.799625,21.7449913 106.129478,21.7449913 C106.633958,21.7449913 107.009887,21.8686419 107.257276,22.1159467 C107.504665,22.3632516 107.676865,22.7253711 107.773881,23.2023162 L107.773881,23.2023162 Z M104.412313,24.3946728 L109.840299,24.3946728 C109.879105,23.8647339 109.830598,23.3568833 109.694776,22.871106 C109.558955,22.3853286 109.338248,21.9525516 109.032649,21.572762 C108.727051,21.1929724 108.33657,20.8904701 107.861194,20.6652461 C107.385819,20.440022 106.827988,20.3274117 106.187687,20.3274117 C105.615296,20.3274117 105.093846,20.4201496 104.623321,20.6056283 C104.152796,20.7911069 103.747763,21.0450322 103.408209,21.3674117 C103.068655,21.6897912 102.806717,22.0717832 102.622388,22.513399 C102.438059,22.9550148 102.345896,23.4319527 102.345896,23.944227 C102.345896,24.4741659 102.435633,24.959936 102.615112,25.4015518 C102.79459,25.8431676 103.049252,26.2229515 103.379104,26.5409149 C103.708957,26.8588783 104.111565,27.1039713 104.58694,27.2762015 C105.062316,27.4484317 105.595893,27.5345455 106.187687,27.5345455 C107.041422,27.5345455 107.769027,27.3579018 108.370522,27.0046091 C108.972018,26.6513165 109.418282,26.0639763 109.709328,25.2425709 L107.890299,25.2425709 C107.822388,25.4545465 107.638061,25.6554787 107.337313,25.8453735 C107.036566,26.0352683 106.677614,26.1302142 106.260448,26.1302142 C105.678355,26.1302142 105.232091,25.9933154 104.921642,25.7195136 C104.611192,25.4457118 104.441418,25.0041026 104.412313,24.3946728 L104.412313,24.3946728 Z M111.062687,20.5128894 L111.062687,27.3623162 L113.129104,27.3623162 L113.129104,24.2754372 C113.129104,23.9663061 113.163059,23.6792602 113.23097,23.4142907 C113.298881,23.1493212 113.412872,22.9174764 113.572948,22.7187493 C113.733023,22.5200222 113.944029,22.3632509 114.20597,22.2484308 C114.467912,22.1336107 114.788058,22.0762015 115.166418,22.0762015 C115.292538,22.0762015 115.423507,22.0828256 115.559328,22.0960741 C115.69515,22.1093226 115.811567,22.1247789 115.908582,22.1424435 L115.908582,20.3936537 C115.743656,20.3494922 115.593284,20.3274117 115.457463,20.3274117 C115.195521,20.3274117 114.943285,20.3627404 114.700746,20.433399 C114.458208,20.5040575 114.230225,20.6034195 114.016791,20.7314881 C113.803357,20.8595567 113.61418,21.0141199 113.449254,21.1951824 C113.284328,21.3762449 113.153359,21.572761 113.056343,21.7847365 L113.027239,21.7847365 L113.027239,20.5128894 L111.062687,20.5128894 Z M118.848134,19.4530168 L118.848134,17.9029531 L116.781716,17.9029531 L116.781716,19.4530168 L118.848134,19.4530168 Z M116.781716,20.5128894 L116.781716,27.3623162 L118.848134,27.3623162 L118.848134,20.5128894 L116.781716,20.5128894 Z M120.390672,22.6193862 C120.419776,22.1777704 120.541044,21.8112348 120.754478,21.5197684 C120.967912,21.228302 121.239551,20.9942491 121.569403,20.8176028 C121.899255,20.6409565 122.270334,20.5150978 122.682649,20.4400232 C123.094965,20.3649485 123.509699,20.3274117 123.926866,20.3274117 C124.305226,20.3274117 124.688431,20.3517002 125.076493,20.4002779 C125.464554,20.4488557 125.818655,20.5438016 126.138806,20.6851187 C126.458957,20.8264358 126.720895,21.0229518 126.924627,21.2746728 C127.128359,21.5263938 127.230224,21.8598088 127.230224,22.2749276 L127.230224,25.8387493 C127.230224,26.1478803 127.249627,26.4437585 127.288433,26.7263926 C127.327239,27.0090267 127.395149,27.2209991 127.492164,27.3623162 L125.396642,27.3623162 C125.357836,27.2563284 125.326306,27.1481341 125.302052,27.0377302 C125.277798,26.9273262 125.260821,26.8147159 125.251119,26.6998958 C124.921267,27.0090268 124.533211,27.2254153 124.08694,27.3490677 C123.640669,27.4727202 123.184704,27.5345455 122.71903,27.5345455 C122.360073,27.5345455 122.025375,27.4948006 121.714925,27.4153098 C121.404476,27.3358189 121.132837,27.2121684 120.9,27.0443544 C120.667163,26.8765404 120.485262,26.664568 120.354291,26.4084308 C120.22332,26.1522936 120.157836,25.8475833 120.157836,25.4942907 C120.157836,25.1056688 120.233022,24.7855021 120.383396,24.5337811 C120.533769,24.2820601 120.727797,24.0811279 120.965485,23.9309786 C121.203173,23.7808292 121.474812,23.6682189 121.78041,23.5931442 C122.086009,23.5180695 122.394028,23.4584523 122.704478,23.4142907 C123.014927,23.3701291 123.320521,23.3348004 123.621269,23.3083034 C123.922016,23.2818065 124.188805,23.2420616 124.421642,23.1890677 C124.654479,23.1360739 124.838805,23.0587922 124.974627,22.9572206 C125.110448,22.855649 125.173508,22.7077099 125.163806,22.513399 C125.163806,22.3102557 125.127426,22.1490683 125.054664,22.0298321 C124.981903,21.9105958 124.884889,21.8178579 124.763619,21.7516155 C124.64235,21.6853731 124.50168,21.6412122 124.341604,21.6191314 C124.181529,21.5970507 124.009329,21.5860104 123.825,21.5860104 C123.417535,21.5860104 123.097389,21.6655001 122.864552,21.8244818 C122.631715,21.9834634 122.495896,22.248429 122.45709,22.6193862 L120.390672,22.6193862 Z M125.163806,24.010469 C125.076492,24.0811275 124.967351,24.1363287 124.836381,24.1760741 C124.70541,24.2158195 124.56474,24.2489402 124.414366,24.2754372 C124.263992,24.3019341 124.106344,24.3240146 123.941418,24.3416792 C123.776492,24.3593438 123.611568,24.3814243 123.446642,24.4079213 C123.291417,24.4344182 123.13862,24.4697469 122.988246,24.5139085 C122.837872,24.5580701 122.706904,24.6176873 122.595336,24.692762 C122.483768,24.7678367 122.39403,24.8627827 122.326119,24.9776028 C122.258209,25.0924229 122.224254,25.2381539 122.224254,25.4148002 C122.224254,25.5826142 122.258209,25.7239292 122.326119,25.8387493 C122.39403,25.9535694 122.486193,26.0440993 122.602612,26.1103416 C122.71903,26.176584 122.85485,26.222953 123.010075,26.2494499 C123.165299,26.2759469 123.325372,26.2891951 123.490299,26.2891951 C123.897763,26.2891951 124.213059,26.2273699 124.436194,26.1037174 C124.659329,25.980065 124.824253,25.8321259 124.93097,25.6598958 C125.037687,25.4876656 125.103172,25.31323 125.127425,25.1365837 C125.151679,24.9599374 125.163806,24.8186224 125.163806,24.7126346 L125.163806,24.010469 Z M128.889179,17.9029531 L128.889179,27.3623162 L130.955597,27.3623162 L130.955597,17.9029531 L128.889179,17.9029531 Z M134.186194,25.1365837 L132.221642,25.1365837 C132.241045,25.5958641 132.355036,25.977856 132.563619,26.2825709 C132.772203,26.5872858 133.038991,26.8323789 133.363993,27.0178576 C133.688994,27.2033362 134.060073,27.3358189 134.477239,27.4153098 C134.894405,27.4948006 135.321266,27.5345455 135.757836,27.5345455 C136.184704,27.5345455 136.604289,27.4970087 137.016604,27.421934 C137.42892,27.3468593 137.795148,27.2165846 138.115299,27.031106 C138.435449,26.8456273 138.694962,26.6005342 138.893843,26.2958193 C139.092725,25.9911044 139.192164,25.6135286 139.192164,25.1630805 C139.192164,24.8451171 139.124254,24.5779436 138.988433,24.3615518 C138.852611,24.1451601 138.673135,23.9641003 138.45,23.8183671 C138.226865,23.6726339 137.972203,23.5556075 137.686007,23.4672843 C137.399812,23.3789611 137.106345,23.3038876 136.805597,23.2420614 C136.514551,23.1802352 136.22836,23.122826 135.947015,23.0698321 C135.66567,23.0168382 135.415859,22.9572209 135.197575,22.8909786 C134.97929,22.8247362 134.802239,22.7386224 134.666418,22.6326346 C134.530596,22.5266468 134.462687,22.389748 134.462687,22.221934 C134.462687,22.0806169 134.501492,21.9680066 134.579104,21.8840996 C134.656717,21.8001926 134.751305,21.7361593 134.862873,21.6919977 C134.974441,21.6478361 135.098134,21.6191315 135.233955,21.605883 C135.369777,21.5926346 135.495895,21.5860104 135.612313,21.5860104 C135.980972,21.5860104 136.301118,21.6500438 136.572761,21.7781123 C136.844404,21.9061809 136.994776,22.151274 137.023881,22.513399 L138.988433,22.513399 C138.949627,22.0894478 138.830785,21.7383685 138.631903,21.4601506 C138.433021,21.1819326 138.18321,20.95892 137.882463,20.791106 C137.581715,20.623292 137.239741,20.5040575 136.85653,20.433399 C136.473319,20.3627404 136.077987,20.3274117 135.670522,20.3274117 C135.263058,20.3274117 134.8653,20.3605324 134.477239,20.4267748 C134.089177,20.4930171 133.739927,20.6078355 133.429478,20.7712334 C133.119028,20.9346312 132.869217,21.1576438 132.680037,21.4402779 C132.490857,21.722912 132.396269,22.0850316 132.396269,22.5266474 C132.396269,22.8269461 132.464178,23.0808714 132.6,23.2884308 C132.735822,23.4959902 132.915297,23.6682178 133.138433,23.8051187 C133.361568,23.9420196 133.61623,24.0524219 133.902425,24.1363289 C134.188621,24.2202359 134.482088,24.2931014 134.782836,24.3549276 C135.520153,24.4962447 136.094961,24.6375596 136.507276,24.7788767 C136.919592,24.9201937 137.125746,25.1321661 137.125746,25.4148002 C137.125746,25.5826142 137.08209,25.7217211 136.994776,25.8321251 C136.907462,25.942529 136.798322,26.0308509 136.667351,26.0970932 C136.53638,26.1633356 136.390859,26.2119126 136.230784,26.2428257 C136.070708,26.2737388 135.917911,26.2891951 135.772388,26.2891951 C135.568656,26.2891951 135.372202,26.2671147 135.183022,26.2229531 C134.993842,26.1787915 134.826493,26.1103421 134.68097,26.0176028 C134.535447,25.9248635 134.416605,25.805629 134.32444,25.6598958 C134.232276,25.5141626 134.186194,25.3397269 134.186194,25.1365837 L134.186194,25.1365837 Z" id="Institute-for-Materi" fill="#FFFFFF"></path>
                        </g>
                        <text id="MATIN" font-family="RobotoCondensed-Bold, Roboto Condensed" font-size="28" font-style="condensed" font-weight="bold" fill="#FFFFFF">
                            <tspan x="181" y="30">MATIN</tspan>
                        </text>
                    </g>
                </g>
            </g>
        </g>
    </g>
</svg>